<svg width="162" height="142" viewBox="0 0 162 142" fill="none" xmlns="http://www.w3.org/2000/svg">
<path d="M43.7759 90.296H14.9759L10.0799 107H1.43994L21.7919 39.8H36.9599L57.3119 107H48.6719L43.7759 90.296ZM28.7999 43.2561L17.1839 82.808H41.5679L29.9519 43.2561H28.7999Z" fill="#252525"/>
<path d="M61.408 39.8H78.88C87.2 39.8 93.28 41.784 97.12 45.752C100.96 49.72 102.88 56.0561 102.88 64.7601V82.0401C102.88 90.7441 100.96 97.08 97.12 101.048C93.28 105.016 87.2 107 78.88 107H61.408V39.8ZM77.728 99.5121C80.672 99.5121 83.2 99.2241 85.312 98.6481C87.488 98.0721 89.28 97.112 90.688 95.768C92.096 94.36 93.12 92.504 93.76 90.2C94.464 87.896 94.816 84.984 94.816 81.464V65.336C94.816 61.816 94.464 58.904 93.76 56.6C93.12 54.296 92.096 52.472 90.688 51.128C89.28 49.72 87.488 48.728 85.312 48.1521C83.2 47.5761 80.672 47.288 77.728 47.288H69.472V99.5121H77.728Z" fill="#252525"/>
<path d="M145.528 103.544H146.68V39.8H154.744V107H138.616L119.224 43.2561H118.072V107H110.008V39.8H126.136L145.528 103.544Z" fill="#252525"/>
</svg>
